<svg width="25" height="22" viewBox="0 0 25 22" fill="none" xmlns="http://www.w3.org/2000/svg">
<path d="M25 2.60427C24.3149 3.70957 23.448 4.69374 22.4413 5.48107C22.4553 5.70819 22.4553 5.95045 22.4553 6.1927C22.4553 13.5361 17.2959 22 7.87192 22C4.97763 22 2.27908 21.0764 0 19.5017C0.405481 19.5471 0.810962 19.5774 1.23043 19.5774C3.63535 19.5774 5.84452 18.6841 7.59228 17.2003C6.52313 17.1763 5.48758 16.7914 4.63028 16.0992C3.77297 15.407 3.13673 14.4421 2.8104 13.3393C3.11801 13.3999 3.4396 13.4453 3.77517 13.4453C4.23658 13.4453 4.69799 13.3696 5.11745 13.2485C3.95777 12.9907 2.91566 12.3077 2.16683 11.3148C1.418 10.3218 1.00827 9.07965 1.00671 7.79766V7.7371C1.70582 8.1459 2.48881 8.4033 3.32774 8.43359C2.62556 7.92354 2.05028 7.23396 1.65277 6.42586C1.25525 5.61775 1.04777 4.71602 1.04866 3.80041C1.04866 2.78596 1.30034 1.83207 1.74776 1.01445C4.27852 4.37577 8.05369 6.58637 12.3182 6.81349C12.2343 6.40468 12.1784 5.98073 12.1784 5.54164C12.1821 4.07051 12.7244 2.66101 13.6863 1.62219C14.6482 0.58336 15.9513 -5.46118e-06 17.3098 0C18.7919 0 20.1202 0.666208 21.057 1.75637C22.2176 1.49897 23.3221 1.04473 24.3149 0.408809C23.9234 1.6958 23.1124 2.78596 22.0498 3.46731C23.0685 3.34673 24.0638 3.05558 25 2.60427V2.60427Z" fill="black"/>
</svg>
