<svg width="25" height="20" viewBox="0 0 25 20" fill="none" xmlns="http://www.w3.org/2000/svg">
<path d="M24.4776 3.12932C24.1901 1.89755 23.3429 0.927448 22.2673 0.598229C20.3177 0 12.5 0 12.5 0C12.5 0 4.68232 0 2.73266 0.598229C1.65706 0.9275 0.80992 1.89755 0.522399 3.12932C0 5.36198 0 10.0202 0 10.0202C0 10.0202 0 14.6784 0.522399 16.9111C0.80992 18.1429 1.65706 19.0726 2.73266 19.4018C4.68232 20 12.5 20 12.5 20C12.5 20 20.3177 20 22.2673 19.4018C23.3429 19.0726 24.1901 18.1429 24.4776 16.9111C25 14.6784 25 10.0202 25 10.0202C25 10.0202 25 5.36198 24.4776 3.12932V3.12932ZM9.94316 14.2495V5.79089L16.4772 10.0203L9.94316 14.2495V14.2495Z" fill="black"/>
</svg>
